<svg width="180" height="180" viewBox="0 0 180 180" fill="none" xmlns="http://www.w3.org/2000/svg">
<circle cx="90" cy="90" r="88" fill="#14444B" stroke="#4CA0D7" stroke-width="4"/>
<path fill-rule="evenodd" clip-rule="evenodd" d="M149.21 89.7434C149.21 112.768 136.253 132.766 117.233 142.843L118.926 146.474C139.31 135.755 153.21 114.373 153.21 89.7434C153.21 54.3679 124.533 25.6903 89.1573 25.6903C53.7818 25.6903 25.1043 54.3679 25.1043 89.7434C25.1043 113.977 38.5622 135.068 58.412 145.949L60.1066 142.315C41.62 132.077 29.1043 112.372 29.1043 89.7434C29.1043 56.577 55.991 29.6903 89.1573 29.6903C122.324 29.6903 149.21 56.577 149.21 89.7434Z" fill="url(#paint0_linear_0_1)"/>
<path d="M131.92 65.6637C134.595 64.6048 136.647 68.1601 134.393 69.9474L95.9086 100.454C94.7126 101.402 92.9536 101.066 92.1905 99.7446L85.0134 87.3134C84.2503 85.9916 84.8392 84.3006 86.2583 83.7389L131.92 65.6637Z" fill="white"/>
<circle cx="89.3122" cy="93.1263" r="10" transform="rotate(15 89.3122 93.1263)" fill="white"/>
<defs>
<linearGradient id="paint0_linear_0_1" x1="47.5" y1="137" x2="112.5" y2="159.5" gradientUnits="userSpaceOnUse">
<stop offset="0.9" stop-color="#4CA0D7"/>
<stop offset="1" stop-color="white"/>
</linearGradient>
</defs>
</svg>
