<svg width="345" height="345" viewBox="0 0 345 345" fill="none" xmlns="http://www.w3.org/2000/svg">
<circle cx="172.862" cy="172.331" r="168.247" fill="#14444B" stroke="#4CA0D7" stroke-width="7.43631"/>
<path fill-rule="evenodd" clip-rule="evenodd" d="M162.637 49.0487C136.072 51.0386 111.864 61.4872 92.7009 77.7095L84.1432 69.1518L69.6829 83.612L78.2406 92.1697C62.0184 111.333 51.5697 135.54 49.5799 162.106H36.2195V182.556H49.7332C52.0673 208.457 62.4503 232.037 78.3619 250.775L69.6829 259.454L84.1432 273.915L92.8441 265.214C99.0746 270.472 105.836 275.12 113.037 279.068L116.187 272.312C80.6975 252.664 56.6693 214.839 56.6693 171.401C56.6693 107.743 108.274 56.1382 171.932 56.1382C235.59 56.1382 287.195 107.743 287.195 171.401C287.195 215.597 262.321 253.983 225.809 273.323L228.956 280.073C236.915 275.888 244.357 270.854 251.164 265.093L259.986 273.915L274.446 259.454L265.624 250.632C281.467 231.917 291.803 208.391 294.131 182.556H307.645V162.106H294.285C292.33 136.006 282.21 112.182 266.471 93.1815L275.243 84.4094L260.783 69.9492L252.165 78.5668C233.291 62.2396 209.385 51.572 183.087 49.2021V37.5473H162.637V49.0487Z" fill="#4CA0D7"/>
<path fill-rule="evenodd" clip-rule="evenodd" d="M263.833 115.548L264.27 116.275L191.183 165.58C191.959 167.683 192.382 169.958 192.382 172.331C192.382 183.111 183.643 191.851 172.862 191.851C162.081 191.851 153.341 183.111 153.341 172.331C153.341 161.55 162.081 152.81 172.862 152.81C177.522 152.81 181.8 154.443 185.156 157.168L264.182 116.22L263.833 115.548ZM185.875 172.331C185.875 179.518 180.049 185.344 172.862 185.344C165.675 185.344 159.848 179.518 159.848 172.331C159.848 165.144 165.675 159.317 172.862 159.317C180.049 159.317 185.875 165.144 185.875 172.331Z" fill="#D9D9D9"/>
</svg>
