<svg width="230" height="112" viewBox="0 0 230 112" fill="none" xmlns="http://www.w3.org/2000/svg">
<rect x="1" y="1" width="228" height="110" rx="9" stroke="white" stroke-width="2"/>
<path d="M77 2L77 110" stroke="white" stroke-width="2"/>
<path d="M153 1L153 110" stroke="white" stroke-width="2"/>
<rect x="87" y="10" width="56" height="22" fill="#39FF14"/>
<rect x="98" y="52" width="34" height="9" rx="4.5" fill="#39FF14"/>
<rect x="89" y="70" width="52" height="9" rx="4.5" fill="#39FF14"/>
<rect x="94" y="88" width="42" height="9" rx="4.5" fill="#39FF14"/>
<ellipse cx="115" cy="21" rx="8" ry="8" fill="black"/>
<rect x="163" y="10" width="56" height="22" fill="#4CA0D7"/>
<rect x="174" y="52" width="34" height="9" rx="4.5" fill="#4CA0D7"/>
<rect x="165" y="70" width="52" height="9" rx="4.5" fill="#4CA0D7"/>
<rect x="170" y="88" width="42" height="9" rx="4.5" fill="#4CA0D7"/>
<rect x="11" y="10" width="56" height="22" fill="#FF3131"/>
<rect x="22" y="52" width="34" height="9" rx="4.5" fill="#FF3131"/>
<rect x="13" y="70" width="52" height="9" rx="4.5" fill="#FF3131"/>
<rect x="18" y="88" width="42" height="9" rx="4.5" fill="#FF3131"/>
<rect x="31" y="13" width="16" height="16" fill="black"/>
<path d="M191 13L197.928 28H184.072L191 13Z" fill="black"/>
</svg>
