<svg width="3553" height="650" viewBox="0 0 3553 650" fill="none" xmlns="http://www.w3.org/2000/svg">
<path d="M928.077 246.384C926.893 233.363 921.625 223.242 912.274 216.021C903.041 208.682 889.843 205.013 872.679 205.013C861.315 205.013 851.846 206.492 844.27 209.452C836.694 212.411 831.012 216.495 827.224 221.703C823.437 226.793 821.483 232.652 821.365 239.281C821.128 244.726 822.194 249.52 824.561 253.663C827.047 257.806 830.598 261.476 835.214 264.672C839.949 267.75 845.631 270.472 852.26 272.839C858.889 275.207 866.346 277.278 874.632 279.054L905.882 286.156C923.875 290.062 939.736 295.271 953.467 301.781C967.317 308.292 978.917 316.045 988.268 325.041C997.738 334.037 1004.9 344.395 1009.75 356.114C1014.61 367.832 1017.09 380.972 1017.21 395.531C1017.09 418.495 1011.29 438.204 999.81 454.658C988.328 471.111 971.815 483.718 950.271 492.477C928.846 501.237 902.982 505.616 872.679 505.616C842.258 505.616 815.742 501.059 793.134 491.945C770.525 482.83 752.946 468.981 740.399 450.396C727.852 431.812 721.401 408.315 721.045 379.906H805.207C805.918 391.625 809.054 401.391 814.618 409.203C820.181 417.016 827.816 422.934 837.523 426.959C847.348 430.983 858.711 432.996 871.614 432.996C883.451 432.996 893.512 431.398 901.798 428.202C910.203 425.006 916.654 420.567 921.152 414.885C925.65 409.203 927.958 402.693 928.077 395.354C927.958 388.488 925.828 382.629 921.685 377.776C917.542 372.804 911.15 368.543 902.509 364.991C893.986 361.322 883.096 357.948 869.838 354.871L831.841 345.993C800.354 338.772 775.555 327.113 757.445 311.014C739.334 294.797 730.338 272.899 730.456 245.318C730.338 222.828 736.375 203.119 748.567 186.192C760.759 169.265 777.627 156.066 799.17 146.597C820.714 137.127 845.276 132.392 872.857 132.392C901.029 132.392 925.473 137.186 946.188 146.774C967.021 156.244 983.179 169.561 994.661 186.724C1006.14 203.888 1012 223.775 1012.24 246.384H928.077ZM1061.6 603.273V228.273H1147.54V274.97H1150.2C1153.75 266.684 1158.78 258.694 1165.29 251C1171.92 243.306 1180.33 237.032 1190.51 232.179C1200.8 227.207 1213.11 224.722 1227.44 224.722C1246.38 224.722 1264.07 229.693 1280.53 239.636C1297.1 249.58 1310.47 264.909 1320.65 285.624C1330.83 306.339 1335.92 332.735 1335.92 364.814C1335.92 395.709 1331.01 421.573 1321.19 442.406C1311.48 463.24 1298.34 478.865 1281.77 489.281C1265.32 499.698 1247.03 504.906 1226.9 504.906C1213.17 504.906 1201.28 502.657 1191.22 498.159C1181.15 493.661 1172.69 487.742 1165.83 480.403C1159.08 473.064 1153.87 465.193 1150.2 456.788H1148.42V603.273H1061.6ZM1146.65 364.636C1146.65 379.314 1148.6 392.098 1152.51 402.989C1156.53 413.879 1162.27 422.342 1169.73 428.379C1177.31 434.298 1186.36 437.257 1196.9 437.257C1207.55 437.257 1216.61 434.298 1224.06 428.379C1231.52 422.342 1237.14 413.879 1240.93 402.989C1244.84 392.098 1246.79 379.314 1246.79 364.636C1246.79 349.958 1244.84 337.233 1240.93 326.462C1237.14 315.69 1231.52 307.345 1224.06 301.426C1216.72 295.508 1207.67 292.548 1196.9 292.548C1186.24 292.548 1177.19 295.448 1169.73 301.249C1162.27 307.049 1156.53 315.335 1152.51 326.107C1148.6 336.878 1146.65 349.722 1146.65 364.636ZM1508.91 506.149C1480.38 506.149 1455.76 500.527 1435.05 489.281C1414.45 477.918 1398.59 461.76 1387.46 440.808C1376.45 419.738 1370.95 394.703 1370.95 365.702C1370.95 337.529 1376.51 312.908 1387.64 291.838C1398.77 270.65 1414.45 254.196 1434.69 242.477C1454.93 230.64 1478.78 224.722 1506.25 224.722C1525.66 224.722 1543.41 227.74 1559.51 233.777C1575.61 239.814 1589.52 248.751 1601.24 260.588C1612.96 272.425 1622.07 287.044 1628.58 304.445C1635.09 321.727 1638.35 341.554 1638.35 363.926V385.588H1401.31V335.162H1557.56C1557.44 325.929 1555.25 317.702 1550.99 310.482C1546.73 303.261 1540.87 297.638 1533.41 293.614C1526.07 289.471 1517.61 287.399 1508.02 287.399C1498.32 287.399 1489.61 289.589 1481.92 293.969C1474.23 298.23 1468.13 304.089 1463.63 311.547C1459.13 318.886 1456.77 327.231 1456.53 336.582V387.896C1456.53 399.023 1458.72 408.789 1463.1 417.193C1467.48 425.479 1473.69 431.93 1481.74 436.547C1489.79 441.163 1499.38 443.472 1510.51 443.472C1518.2 443.472 1525.19 442.406 1531.46 440.276C1537.73 438.145 1543.12 435.008 1547.62 430.865C1552.11 426.722 1555.49 421.632 1557.74 415.595L1637.46 417.903C1634.15 435.777 1626.87 451.343 1615.62 464.601C1604.49 477.74 1589.88 487.979 1571.76 495.318C1553.65 502.539 1532.7 506.149 1508.91 506.149ZM1810 506.149C1781.24 506.149 1756.56 500.231 1735.96 488.393C1715.48 476.556 1699.74 460.103 1688.73 439.033C1677.72 417.844 1672.22 393.341 1672.22 365.524C1672.22 337.589 1677.72 313.086 1688.73 292.016C1699.86 270.827 1715.66 254.314 1736.14 242.477C1756.73 230.64 1781.3 224.722 1809.82 224.722C1835.04 224.722 1856.99 229.279 1875.7 238.393C1894.52 247.508 1909.2 260.411 1919.73 277.101C1930.38 293.673 1936.01 313.145 1936.6 335.517H1855.46C1853.8 321.549 1849.06 310.6 1841.25 302.669C1833.56 294.738 1823.5 290.773 1811.07 290.773C1801.01 290.773 1792.19 293.614 1784.61 299.295C1777.04 304.859 1771.12 313.145 1766.86 324.153C1762.71 335.044 1760.64 348.538 1760.64 364.636C1760.64 380.735 1762.71 394.348 1766.86 405.474C1771.12 416.483 1777.04 424.828 1784.61 430.51C1792.19 436.073 1801.01 438.855 1811.07 438.855C1819.12 438.855 1826.22 437.139 1832.37 433.706C1838.65 430.273 1843.8 425.242 1847.82 418.614C1851.85 411.866 1854.39 403.699 1855.46 394.111H1936.6C1935.77 416.601 1930.15 436.251 1919.73 453.06C1909.43 469.868 1894.93 482.948 1876.23 492.3C1857.65 501.533 1835.57 506.149 1810 506.149ZM2219.67 256.149C2217.66 248.692 2214.7 242.122 2210.79 236.44C2206.89 230.64 2202.09 225.728 2196.41 221.703C2190.73 217.679 2184.22 214.66 2176.88 212.648C2169.54 210.517 2161.49 209.452 2152.73 209.452C2135.09 209.452 2119.82 213.713 2106.92 222.236C2094.14 230.759 2084.25 243.187 2077.27 259.523C2070.28 275.74 2066.79 295.448 2066.79 318.649C2066.79 341.968 2070.17 361.855 2076.91 378.308C2083.66 394.762 2093.43 407.309 2106.21 415.95C2118.99 424.591 2134.5 428.912 2152.73 428.912C2168.83 428.912 2182.44 426.308 2193.57 421.099C2204.81 415.773 2213.34 408.256 2219.14 398.55C2224.94 388.843 2227.84 377.42 2227.84 364.281L2244.17 366.234H2155.75V302.136H2312.53V350.254C2312.53 382.806 2305.61 410.683 2291.76 433.884C2278.03 457.084 2259.09 474.899 2234.94 487.328C2210.91 499.757 2183.27 505.972 2152.02 505.972C2117.34 505.972 2086.86 498.455 2060.58 483.422C2034.3 468.389 2013.82 446.964 1999.14 419.146C1984.47 391.211 1977.13 358.067 1977.13 319.714C1977.13 289.885 1981.57 263.429 1990.44 240.347C1999.32 217.146 2011.69 197.496 2027.55 181.398C2043.53 165.299 2062 153.107 2082.95 144.821C2104.02 136.535 2126.69 132.392 2150.95 132.392C2172.02 132.392 2191.62 135.411 2209.73 141.447C2227.96 147.484 2244.05 156.007 2258.02 167.016C2272.11 178.024 2283.53 191.104 2292.29 206.256C2301.05 221.407 2306.49 238.038 2308.63 256.149H2219.67ZM2441.22 505.616C2423.82 505.616 2408.37 502.716 2394.87 496.916C2381.5 490.998 2370.9 482.12 2363.09 470.283C2355.4 458.327 2351.55 443.353 2351.55 425.361C2351.55 410.209 2354.21 397.425 2359.54 387.009C2364.87 376.592 2372.21 368.128 2381.56 361.618C2390.91 355.107 2401.68 350.195 2413.87 346.881C2426.06 343.448 2439.09 341.14 2452.93 339.956C2468.44 338.536 2480.93 337.056 2490.4 335.517C2499.87 333.86 2506.73 331.552 2511 328.592C2515.38 325.515 2517.57 321.194 2517.57 315.631V314.743C2517.57 305.628 2514.43 298.585 2508.15 293.614C2501.88 288.642 2493.42 286.156 2482.76 286.156C2471.28 286.156 2462.05 288.642 2455.07 293.614C2448.08 298.585 2443.64 305.451 2441.75 314.21L2361.67 311.369C2364.04 294.797 2370.13 280.001 2379.96 266.98C2389.9 253.841 2403.51 243.543 2420.8 236.085C2438.2 228.509 2459.09 224.722 2483.47 224.722C2500.88 224.722 2516.91 226.793 2531.59 230.936C2546.27 234.961 2559.05 240.879 2569.94 248.692C2580.83 256.386 2589.24 265.856 2595.16 277.101C2601.19 288.346 2604.21 301.189 2604.21 315.631V501H2522.54V463.003H2520.41C2515.55 472.236 2509.34 480.048 2501.76 486.44C2494.31 492.832 2485.49 497.626 2475.31 500.822C2465.25 504.018 2453.88 505.616 2441.22 505.616ZM2468.03 448.798C2477.38 448.798 2485.78 446.904 2493.24 443.116C2500.82 439.329 2506.85 434.12 2511.35 427.491C2515.85 420.744 2518.1 412.932 2518.1 404.054V378.131C2515.61 379.433 2512.59 380.616 2509.04 381.682C2505.61 382.747 2501.82 383.753 2497.68 384.7C2493.54 385.647 2489.27 386.476 2484.89 387.186C2480.52 387.896 2476.31 388.547 2472.29 389.139C2464.12 390.441 2457.14 392.454 2451.34 395.176C2445.65 397.899 2441.28 401.45 2438.2 405.83C2435.24 410.091 2433.76 415.181 2433.76 421.099C2433.76 430.096 2436.95 436.961 2443.35 441.696C2449.86 446.431 2458.08 448.798 2468.03 448.798ZM2833.26 383.28V228.273H2919.91V501H2837.17V450.219H2834.33C2828.29 466.909 2817.99 480.167 2803.43 489.991C2788.99 499.698 2771.53 504.551 2751.05 504.551C2732.47 504.551 2716.13 500.29 2702.05 491.767C2687.96 483.244 2677.01 471.348 2669.2 456.078C2661.39 440.69 2657.42 422.697 2657.3 402.101V228.273H2744.13V385.055C2744.25 399.852 2748.15 411.511 2755.85 420.034C2763.54 428.557 2774.02 432.818 2787.27 432.818C2795.92 432.818 2803.67 430.924 2810.53 427.136C2817.52 423.23 2823.02 417.607 2827.05 410.268C2831.19 402.811 2833.26 393.815 2833.26 383.28ZM3102.3 608.955C3076.38 608.955 3054.19 605.344 3035.72 598.124C3017.25 590.903 3002.75 581.019 2992.22 568.472C2981.68 555.924 2975.35 541.72 2973.22 525.858L3055.43 521.241C3056.97 526.805 3059.81 531.658 3063.95 535.801C3068.21 539.944 3073.72 543.14 3080.46 545.389C3087.33 547.638 3095.38 548.763 3104.61 548.763C3119.17 548.763 3131.19 545.212 3140.66 538.109C3150.24 531.125 3155.04 518.874 3155.04 501.355V453.415H3152.02C3148.59 461.819 3143.38 469.336 3136.4 475.964C3129.41 482.593 3120.71 487.802 3110.29 491.589C3100 495.377 3088.16 497.271 3074.78 497.271C3054.9 497.271 3036.67 492.655 3020.1 483.422C3003.64 474.071 2990.44 459.629 2980.5 440.098C2970.68 420.448 2965.76 395.176 2965.76 364.281C2965.76 332.439 2970.85 306.22 2981.03 285.624C2991.21 264.909 3004.53 249.58 3020.98 239.636C3037.56 229.693 3055.37 224.722 3074.43 224.722C3088.75 224.722 3101 227.207 3111.18 232.179C3121.48 237.032 3129.94 243.306 3136.57 251C3143.2 258.694 3148.23 266.684 3151.67 274.97H3154.15V228.273H3240.62V502.065C3240.62 525.148 3234.82 544.62 3223.22 560.482C3211.62 576.343 3195.4 588.358 3174.57 596.526C3153.74 604.812 3129.65 608.955 3102.3 608.955ZM3104.97 434.061C3115.5 434.061 3124.5 431.279 3131.96 425.716C3139.41 420.152 3145.15 412.162 3149.18 401.746C3153.2 391.329 3155.22 378.841 3155.22 364.281C3155.22 349.485 3153.2 336.76 3149.18 326.107C3145.27 315.335 3139.53 307.049 3131.96 301.249C3124.5 295.448 3115.5 292.548 3104.97 292.548C3094.2 292.548 3085.08 295.508 3077.62 301.426C3070.17 307.345 3064.48 315.69 3060.58 326.462C3056.79 337.115 3054.9 349.722 3054.9 364.281C3054.9 378.841 3056.85 391.329 3060.76 401.746C3064.66 412.162 3070.28 420.152 3077.62 425.716C3085.08 431.279 3094.2 434.061 3104.97 434.061ZM3423.46 506.149C3394.93 506.149 3370.31 500.527 3349.6 489.281C3329 477.918 3313.14 461.76 3302.01 440.808C3291 419.738 3285.5 394.703 3285.5 365.702C3285.5 337.529 3291.06 312.908 3302.19 291.838C3313.32 270.65 3329 254.196 3349.24 242.477C3369.48 230.64 3393.33 224.722 3420.8 224.722C3440.21 224.722 3457.97 227.74 3474.06 233.777C3490.16 239.814 3504.07 248.751 3515.79 260.588C3527.51 272.425 3536.62 287.044 3543.13 304.445C3549.64 321.727 3552.9 341.554 3552.9 363.926V385.588H3315.86V335.162H3472.11C3471.99 325.929 3469.8 317.702 3465.54 310.482C3461.28 303.261 3455.42 297.638 3447.96 293.614C3440.62 289.471 3432.16 287.399 3422.57 287.399C3412.87 287.399 3404.17 289.589 3396.47 293.969C3388.78 298.23 3382.68 304.089 3378.18 311.547C3373.69 318.886 3371.32 327.231 3371.08 336.582V387.896C3371.08 399.023 3373.27 408.789 3377.65 417.193C3382.03 425.479 3388.24 431.93 3396.29 436.547C3404.34 441.163 3413.93 443.472 3425.06 443.472C3432.75 443.472 3439.74 442.406 3446.01 440.276C3452.28 438.145 3457.67 435.008 3462.17 430.865C3466.67 426.722 3470.04 421.632 3472.29 415.595L3552.01 417.903C3548.7 435.777 3541.42 451.343 3530.17 464.601C3519.04 477.74 3504.43 487.979 3486.32 495.318C3468.2 502.539 3447.25 506.149 3423.46 506.149Z" fill="#4F9FD7"/>
<circle cx="325" cy="325" r="316" fill="#14444B" stroke="#4CA0D7" stroke-width="18"/>
<path fill-rule="evenodd" clip-rule="evenodd" d="M535.26 324.073C535.26 405.79 489.308 476.774 421.835 512.595L429.453 528.932C503.062 490.228 553.26 413.013 553.26 324.073C553.26 196.328 449.702 92.7705 321.957 92.7705C194.212 92.7705 90.6543 196.328 90.6543 324.073C90.6543 411.584 139.252 487.744 210.932 527.038L218.558 510.683C153.012 474.288 108.654 404.361 108.654 324.073C108.654 206.269 204.153 110.771 321.957 110.771C439.761 110.771 535.26 206.269 535.26 324.073Z" fill="url(#paint0_linear_0_1)"/>
<path d="M472.586 238.775C481.031 235.476 487.394 246.715 480.369 252.522L345.645 363.898C341.84 367.044 336.193 366.012 333.766 361.726L306.528 313.616C304.102 309.331 306.049 303.828 310.624 302.041L472.586 238.775Z" fill="white"/>
<circle cx="322.516" cy="336.289" r="36.1111" transform="rotate(15 322.516 336.289)" fill="white"/>
<defs>
<linearGradient id="paint0_linear_0_1" x1="171.528" y1="494.722" x2="406.25" y2="575.972" gradientUnits="userSpaceOnUse">
<stop offset="0.9" stop-color="#4CA0D7"/>
<stop offset="1" stop-color="white"/>
</linearGradient>
</defs>
</svg>
